<?xml version="1.0"?>
<svg xmlns="http://www.w3.org/2000/svg" height="512px" viewBox="-9 0 512 512" width="512px" class=""><g><path d="m352.511719 391.273438c-21.859375 0-33.609375 7.375-43.054688 13.300781-8.0625 5.0625-13.886719 8.714843-27.113281 8.714843-13.230469 0-19.054688-3.652343-27.113281-8.714843-9.445313-5.925781-21.199219-13.300781-43.054688-13.300781s-33.605469 7.375-43.050781 13.300781c-8.0625 5.0625-13.886719 8.714843-27.109375 8.714843-13.226563 0-19.050781-3.652343-27.113281-8.714843-9.441406-5.925781-21.191406-13.300781-43.046875-13.300781v30.023437c13.222656 0 19.046875 3.652344 27.109375 8.710937 9.441406 5.925782 21.195312 13.300782 43.050781 13.300782s33.605469-7.375 43.050781-13.300782c8.0625-5.058593 13.886719-8.710937 27.113282-8.710937 13.226562 0 19.050781 3.652344 27.109374 8.710937 9.445313 5.925782 21.199219 13.300782 43.054688 13.300782s33.609375-7.375 43.050781-13.300782c8.0625-5.058593 13.886719-8.710937 27.117188-8.710937 13.226562 0 19.050781 3.652344 27.117187 8.710937 9.441406 5.925782 21.195313 13.300782 43.050782 13.300782v-30.019532c-13.226563 0-19.050782-3.652343-27.113282-8.714843-9.449218-5.921875-21.199218-13.300781-43.054687-13.300781zm0 0" fill="#dce1eb" data-original="#DCE1EB" class="" style="fill:#E3E4E9" data-old_color="#DDDEE2"/><path d="m352.511719 459.964844c-21.859375 0-33.609375 7.375-43.054688 13.300781-8.0625 5.058594-13.886719 8.714844-27.113281 8.714844-13.230469 0-19.054688-3.65625-27.113281-8.714844-9.445313-5.925781-21.199219-13.300781-43.054688-13.300781s-33.605469 7.375-43.050781 13.300781c-8.0625 5.058594-13.886719 8.714844-27.109375 8.714844-13.226563 0-19.050781-3.65625-27.113281-8.714844-9.441406-5.925781-21.191406-13.300781-43.046875-13.300781v30.019531c13.222656 0 19.046875 3.65625 27.109375 8.714844 9.441406 5.925781 21.195312 13.300781 43.050781 13.300781s33.605469-7.375 43.050781-13.300781c8.0625-5.058594 13.886719-8.714844 27.113282-8.714844 13.226562 0 19.050781 3.65625 27.109374 8.714844 9.445313 5.925781 21.195313 13.300781 43.054688 13.300781 21.855469 0 33.605469-7.375 43.050781-13.300781 8.0625-5.058594 13.886719-8.714844 27.117188-8.714844 13.226562 0 19.050781 3.65625 27.113281 8.714844 9.445312 5.925781 21.199219 13.300781 43.054688 13.300781v-30.019531c-13.230469 0-19.054688-3.65625-27.117188-8.714844-9.445312-5.925781-21.195312-13.300781-43.050781-13.300781zm0 0" fill="#dce1eb" data-original="#DCE1EB" class="" style="fill:#E3E4E9" data-old_color="#DDDEE2"/><path d="m395.5625 404.574219c-9.445312-5.925781-21.195312-13.300781-43.050781-13.300781-21.859375 0-33.609375 7.375-43.054688 13.300781-8.0625 5.0625-13.886719 8.714843-27.113281 8.714843-13.230469 0-19.054688-3.652343-27.113281-8.714843-4.523438-2.835938-9.578125-6.003907-16.011719-8.535157v33.925782c.023438.015625.046875.027344.070312.042968 9.445313 5.925782 21.199219 13.300782 43.054688 13.300782s33.609375-7.375 43.050781-13.300782c8.0625-5.058593 13.886719-8.710937 27.117188-8.710937 13.226562 0 19.050781 3.652344 27.117187 8.710937 9.441406 5.925782 21.195313 13.300782 43.050782 13.300782v-30.019532c-13.230469 0-19.054688-3.652343-27.117188-8.714843zm0 0" fill="#b6c4cf" data-original="#B6C4CF" class="active-path" style="fill:#B8C7D2" data-old_color="#CAD5DD"/><path d="m395.5625 473.265625c-9.445312-5.925781-21.195312-13.300781-43.050781-13.300781-21.859375 0-33.609375 7.375-43.054688 13.300781-8.0625 5.058594-13.886719 8.714844-27.113281 8.714844-13.230469 0-19.054688-3.65625-27.113281-8.714844-4.523438-2.835937-9.578125-6.003906-16.011719-8.535156v33.925781c.023438.015625.046875.027344.070312.042969 9.445313 5.925781 21.195313 13.300781 43.054688 13.300781 21.855469 0 33.605469-7.375 43.050781-13.300781 8.0625-5.058594 13.886719-8.714844 27.117188-8.714844 13.226562 0 19.050781 3.65625 27.113281 8.714844 9.445312 5.925781 21.199219 13.300781 43.054688 13.300781v-30.019531c-13.230469 0-19.054688-3.65625-27.117188-8.714844zm0 0" fill="#b6c4cf" data-original="#B6C4CF" class="active-path" style="fill:#B8C7D2" data-old_color="#CAD5DD"/><path d="m403.257812 362.527344h-294.113281c-60.179687 0-109.144531-48.960938-109.144531-109.144532v-8.371093c0-55.273438 41.296875-101.078125 94.65625-108.1875v-32.832031c0-57.339844 46.652344-103.992188 103.996094-103.992188h1.785156c52.503906 0 96.046875 39.113281 103.015625 89.734375 49.480469 3.289063 89.542969 41.5625 95.621094 90.242187h4.183593c50.328126 0 91.273438 40.945313 91.273438 91.277344 0 50.328125-40.945312 91.273438-91.273438 91.273438zm0 0" fill="#00aadf" data-original="#00AADF" class="" style="fill:#BEDBE5" data-old_color="#98D1E5"/><path d="m403.257812 179.976562h-4.183593c-6.078125-48.675781-46.140625-86.953124-95.621094-90.242187-5.144531-37.351563-30.210937-68.414063-64.085937-82.148437v354.941406h163.890624c50.328126 0 91.273438-40.945313 91.273438-91.277344 0-50.328125-40.945312-91.273438-91.273438-91.273438zm0 0" fill="#007fc5" data-original="#007FC5" class="" style="fill:#A2BCCA" data-old_color="#A0B9C6"/></g> </svg>
