<?xml version="1.0"?>
<svg xmlns="http://www.w3.org/2000/svg" height="512px" viewBox="0 -20 467.5391 467" width="512px" class=""><g><g fill="#fdb62f"><path d="m308.796875 187.824219c0 66.972656-54.292969 121.265625-121.265625 121.265625-66.96875 0-121.261719-54.292969-121.261719-121.265625 0-66.972657 54.292969-121.265625 121.261719-121.265625 66.972656 0 121.265625 54.292968 121.265625 121.265625zm0 0" data-original="#000000" class="" style="fill:#FFDE17" data-old_color="#ffde17"/><path d="m46.113281 57.714844 11.3125-11.3125 28.585938 28.582031-11.3125 11.3125zm0 0" data-original="#000000" class="" style="fill:#FFDE17" data-old_color="#ffde17"/><path d="m0 145.863281 4.140625-15.457031 39.046875 10.460938-4.140625 15.457031zm0 0" data-original="#000000" class="" style="fill:#FFDE17" data-old_color="#ffde17"/><path d="m331.875 140.859375 39.046875-10.460937 4.140625 15.453124-39.046875 10.460938zm0 0" data-original="#000000" class="" style="fill:#FFDE17" data-old_color="#ffde17"/><path d="m0 229.789062 39.046875-10.460937 4.140625 15.453125-39.046875 10.464844zm0 0" data-original="#000000" class="" style="fill:#FFDE17" data-old_color="#ffde17"/><path d="m289.058594 74.984375 28.582031-28.585937 11.316406 11.316406-28.585937 28.582031zm0 0" data-original="#000000" class="" style="fill:#FFDE17" data-old_color="#ffde17"/><path d="m219.042969 39.34375 10.460937-39.046875 15.457032 4.140625-10.464844 39.046875zm0 0" data-original="#000000" class="" style="fill:#FFDE17" data-old_color="#ffde17"/><path d="m130.128906 4.414062 15.457032-4.144531 10.46875 39.050781-15.457032 4.144532zm0 0" data-original="#000000" class="" style="fill:#FFDE17" data-old_color="#ffde17"/></g><path d="m426.875 304.351562c.433594-4.160156.652344-8.34375.65625-12.527343.03125-56.214844-38.988281-104.910157-93.859375-117.128907s-110.867187 15.316407-134.691406 66.234376c-22.914063-26.5625-59.9375-36.066407-92.8125-23.828126-32.878907 12.242188-54.671875 43.640626-54.636719 78.722657 0 2.03125.160156 4 .304688 6.015625-31.179688 8.015625-51.554688 37.949218-47.574219 69.898437s31.074219 55.964844 63.269531 56.085938h336c30.757812.039062 57.179688-21.832031 62.894531-52.050781 5.714844-30.222657-10.902343-60.226563-39.550781-71.421876zm0 0" fill="#e3e3e1" data-original="#E3E3E1" class="" style="fill:#FFFFFF" data-old_color="#F9F9F6"/><path d="m426.875 304.351562c.433594-4.160156.652344-8.34375.65625-12.527343.023438-23.53125-6.90625-46.542969-19.917969-66.152344-108.152343 108.601563-272 153.886719-393.871093 172.753906 11.75 18.320313 32.023437 29.398438 53.789062 29.398438h336c30.757812.039062 57.179688-21.832031 62.894531-52.050781 5.714844-30.222657-10.902343-60.226563-39.550781-71.421876zm0 0" fill="#d9d9d7" data-original="#D9D9D7" class="active-path" style="fill:#EEEEEB" data-old_color="#E5E5E1"/></g> </svg>
