<?xml version="1.0"?>
<svg xmlns="http://www.w3.org/2000/svg" xmlns:xlink="http://www.w3.org/1999/xlink" version="1.1" id="Capa_1" x="0px" y="0px" viewBox="0 0 512 512" style="enable-background:new 0 0 512 512;" xml:space="preserve" width="512px" height="512px" class=""><g><path style="fill:#EDCE09" d="M481,257c0,62.1-25.201,118.2-66,159s-96.899,66-159,66C131.8,482,31,381.2,31,257  c0-62.1,25.201-119.2,66-160s96.9-66,159-66s118.2,25.201,159,66S481,194.9,481,257z" data-original="#FEDB41" class="" data-old_color="#E1C304"/><path style="fill:#EEAD1C" d="M481,257c0,62.1-25.201,118.2-66,159s-96.899,66-159,66V31c62.1,0,118.2,25.201,159,66  S481,194.9,481,257z" data-original="#FCBF29" class="" data-old_color="#EEB12A"/><g>
	<path style="fill:#EDCE09" d="M271,196c0,8.399-6.599,15-15,15s-15-6.601-15-15c0-8.401,6.599-15,15-15S271,187.599,271,196z" data-original="#FEA832" class="" data-old_color="#FFDE17"/>
	<path style="fill:#EDCE09" d="M166,211c-24.814,0-45-20.186-45-45s20.186-45,45-45s45,20.186,45,45S190.814,211,166,211z" data-original="#FEA832" class="" data-old_color="#FFDE17"/>
</g><g>
	<path style="fill:#EEAD1C" d="M391,272c-16.538,0-30-14.462-30-31s13.462-30,30-30s30,13.462,30,30S407.538,272,391,272z" data-original="#FE9923" class="active-path" data-old_color="#F4C55C"/>
	<path style="fill:#EEAD1C" d="M271,196c0,8.399-6.599,15-15,15v-30C264.401,181,271,187.599,271,196z" data-original="#FE9923" class="active-path" data-old_color="#F4C55C"/>
</g><path style="fill:#80C4E6" d="M512,106c0,24.899-21.099,45-46,45H346c-24.901,0-45-20.101-45-45V91h-45c-24.901,0-45-20.099-45-45  s20.099-46,45-46h120c24.901,0,45,21.099,45,46v15h45C490.901,61,512,81.099,512,106z" data-original="#CAE8F9" class="" data-old_color="#6CBCE4"/><path style="fill:#488CE8" d="M512,106c0,24.899-21.099,45-46,45H346c-24.901,0-45-20.101-45-45V91h-45V0h120  c24.901,0,45,21.099,45,46v15h45C490.901,61,512,81.099,512,106z" data-original="#B7E0F6" class="" data-old_color="#3882E6"/><path style="fill:#80C4E6" d="M512,467c0,24.899-21.099,45-46,45H76c-24.901,0-45-20.101-45-45c0-24.901,20.099-45,45-45h60  c16.5,0,30-13.5,30-30s-13.5-30-30-30H46c-24.901,0-46-20.101-46-45c0-24.901,21.099-45,46-45h270c24.901,0,45,20.099,45,45  c0,24.899-20.099,45-45,45h-30c-16.5,0-30,13.5-30,30s13.5,30,30,30h180C490.901,422,512,442.099,512,467z" data-original="#CAE8F9" class="" data-old_color="#6CBCE4"/><g>
	<path style="fill:#488CE8" d="M256,392V272h60c24.901,0,45,20.099,45,45c0,24.899-20.099,45-45,45h-30   C269.5,362,256,375.5,256,392z" data-original="#B7E0F6" class="" data-old_color="#3882E6"/>
	<path style="fill:#488CE8" d="M512,467c0,24.899-21.099,45-46,45H256V392c0,16.5,13.5,30,30,30h180   C490.901,422,512,442.099,512,467z" data-original="#B7E0F6" class="" data-old_color="#3882E6"/>
</g></g> </svg>
