<?xml version="1.0"?>
<svg xmlns="http://www.w3.org/2000/svg" height="512px" viewBox="0 0 512 512" width="512px" class=""><g><path d="m394.722656 168.425781h67.539063l28.519531 28.5 21.21875-21.203125-22.304688-22.289062 21.484376-21.46875-21.21875-21.207032-27.695313 27.679688h-67.554687c-.082032-.203125-.160157-.410156-.242188-.609375l23.144531-23.132813h51.5v-29.988281h-42.710937v-43.5h-30.007813v52.285157l-23.148437 23.128906c-.203125-.085938-.414063-.164063-.625-.25v-66.667969l27.699218-27.679687-21.21875-21.203126-21.480468 21.46875-22.300782-22.289062-21.21875 21.203125 28.515626 28.5v66.667969c-.464844.191406-.925782.390625-1.382813.59375l-23.371094-23.46875v-52.289063h-30.003906v43.488281h-42.710937v29.988282h51.476562l23.832031 23.929687c-.085937.214844-.171875.429688-.253906.648438h-67.226563l-28.519531-28.5-21.21875 21.203125 22.304688 22.289062-21.484375 21.46875 21.21875 21.203125 27.699218-27.679687h67.609376l-23.144532 23.113281h-52.308594v29.988281h43.515626v42.679688h30.003906v-51.460938l23.332031-23.296875c.210937.085938.421875.167969.632813.25v66.644531l-28.546876 28.523438 21.21875 21.207031 22.304688-22.289062 21.480469 21.46875 21.21875-21.203125-27.671875-27.652344v-66.699219c.203125-.082031.410156-.15625.613281-.242187l23.574219 23.675781v52.292969h30.007812v-43.484375h42.710938v-29.988281h-51.476563l-23.589843-23.695313c.09375-.214844.175781-.433594.261718-.652344zm0 0" fill="#00aadf" data-original="#00AADF" class="active-path" style="fill:#00AADF"/><path d="m307.941406 337.070312-21.21875-21.203124-27.695312 27.675781h-67.554688c-.082031-.203125-.160156-.40625-.246094-.609375l23.144532-23.132813h51.5v-29.988281h-42.710938v-43.5h-30.007812v52.285156l-23.144532 23.132813c-.207031-.089844-.417968-.167969-.625-.25v-66.667969l27.699219-27.679688-21.21875-21.207031-21.480469 21.46875-22.304687-22.289062-21.21875 21.207031 28.515625 28.496094v66.671875c-.464844.1875-.925781.386719-1.378906.59375l-23.371094-23.46875v-52.289063h-30.007812v43.484375h-42.710938v29.988281h51.480469l23.832031 23.933594c-.085938.210938-.171875.425782-.253906.644532h-67.230469l-28.515625-28.5-21.21875 21.203124 22.300781 22.289063-21.480469 21.46875 21.21875 21.203125 27.695313-27.675781h67.609375l-23.144531 23.109375h-52.308594v29.988281h43.515625v42.683594h30.007812v-51.464844l23.332032-23.296875c.207031.089844.417968.167969.628906.253906v66.640625l-28.546875 28.527344 21.222656 21.203125 22.300781-22.289062 21.484376 21.46875 21.21875-21.203126-27.671876-27.652343v-66.695313c.203126-.082031.410157-.160156.613282-.246094l23.574218 23.679688v52.289062h30.007813v-43.484374h42.710937v-29.988282h-51.480468l-23.585938-23.691406c.089844-.21875.171875-.4375.261719-.65625h67.539063l28.515624 28.5 21.21875-21.203125-22.300781-22.289063zm0 0" fill="#545ac3" data-original="#545AC3" class="" style="fill:#0C18E9" data-old_color="#545AC3"/><path d="m462.261719 168.425781 28.519531 28.5 21.21875-21.203125-22.304688-22.289062 21.484376-21.46875-21.21875-21.207032-27.695313 27.679688h-67.554687c-.082032-.203125-.160157-.410156-.242188-.609375l23.144531-23.132813h51.5v-29.988281h-42.710937v-43.5h-30.007813v52.28125l-23.148437 23.132813c-.203125-.085938-.414063-.164063-.625-.25v-66.667969l27.699218-27.679687-21.21875-21.203126-21.480468 21.46875-.027344 262.316407 21.480469 21.46875 21.21875-21.207031-27.671875-27.648438v-66.699219c.203125-.082031.410156-.15625.613281-.242187l23.574219 23.675781v52.289063h30.007812v-43.484376h42.710938v-29.988281h-51.476563l-23.589843-23.691406c.09375-.214844.175781-.4375.261718-.65625h67.539063zm0 0" fill="#007fc5" data-original="#007FC5" class=""/><path d="m259.023438 373.53125 28.515624 28.5 21.21875-21.203125-22.300781-22.289063 21.480469-21.46875-21.214844-21.203124-27.699218 27.679687h-67.550782c-.082031-.203125-.160156-.410156-.246094-.609375l23.144532-23.132812h51.5v-29.988282h-42.710938v-43.5h-30.007812v52.28125l-23.144532 23.132813c-.207031-.089844-.417968-.167969-.625-.25v-66.667969l27.699219-27.679688-21.21875-21.207031-21.484375 21.46875-.027344 262.316407 21.484376 21.46875 21.214843-21.203126-27.667969-27.652343v-66.695313c.203126-.082031.410157-.160156.609376-.246094l23.578124 23.679688v52.289062h30.003907v-43.484374h42.710937v-29.988282h-51.476562l-23.585938-23.691406c.089844-.21875.171875-.4375.261719-.65625zm0 0" fill="#404aa2" data-original="#404AA2" class="" style="fill:#4252EA" data-old_color="#3547ED"/></g> </svg>
